HIERARCHY
ROOT ui
{
	 OFFSET 0 0 0
	 CHANNELS 3 XPosition YPosition Z Position
	 EndSite
	 {
	 OFFSET 0 -1 0
	 }
}
ROOT li
{
	 OFFSET 0 0 0
	 CHANNELS 3 XPosition YPosition Z Position
	 EndSite
	 {
	 OFFSET 0 -1 0
	 }
}
ROOT ul
{
	 OFFSET 0 0 0
	 CHANNELS 3 XPosition YPosition Z Position
	 EndSite
	 {
	 OFFSET 0 -1 0
	 }
}
ROOT ll
{
	 OFFSET 0 0 0
	 CHANNELS 3 XPosition YPosition Z Position
	 EndSite
	 {
	 OFFSET 0 -1 0
	 }
}
ROOT tt
{
	 OFFSET 0 0 0
	 CHANNELS 3 XPosition YPosition Z Position
	 EndSite
	 {
	 OFFSET 0 -1 0
	 }
}
ROOT tb
{
	 OFFSET 0 0 0
	 CHANNELS 3 XPosition YPosition Z Position
	 EndSite
	 {
	 OFFSET 0 -1 0
	 }
}
ROOT td
{
	 OFFSET 0 0 0
	 CHANNELS 3 XPosition YPosition Z Position
	 EndSite
	 {
	 OFFSET 0 -1 0
	 }
}
ROOT v
{
	 OFFSET 0 0 0
	 CHANNELS 3 XPosition YPosition Z Position
	 EndSite
	 {
	 OFFSET 0 -1 0
	 }
}
ROOT bn
{
	 OFFSET 0 0 0
	 CHANNELS 3 XPosition YPosition Z Position
	 EndSite
	 {
	 OFFSET 0 -1 0
	 }
}
MOTION
Frames: 24
Frame Time: 0.002
-0.021476531982421877	-0.0050562782287597655	0		0.557614013671875	-2.62032666015625	0		-1.0023402709960938	0.09393503570556641	0		-0.48399822998046876	-2.9096220703125	0		2.693248779296875	-1.02630029296875	0		4.18290478515625	-0.5724666137695312	0		5.53339453125	-0.3769519348144531	0		6.03281640625	0.47300970458984376	0		-0.06038174057006836	5.97786572265625	0		
0.06550415802001953	-3.5874199867248535E-4	0		0.584796142578125	-2.59889697265625	0		-0.9395655517578125	0.08192649841308594	0		-0.4899112243652344	-2.895789306640625	0		2.693163330078125	-1.026537841796875	0		4.18281884765625	-0.572703369140625	0		5.5243212890625	-0.37607803344726565	0		6.0329375	0.4897727355957031	0		-0.04253365707397461	5.97240673828125	0		
-0.03147611427307129	0.003549267053604126	0		0.5578140869140625	-2.59584326171875	0		-1.028717529296875	0.07173648834228516	0		-0.4987965087890625	-2.88495751953125	0		2.72101611328125	-1.03715234375	0		4.1917705078125	-0.5750844116210938	0		5.5302119140625	-0.3834202575683594	0		6.036619140625	0.4654568786621094	0		-0.07662429809570312	5.9675458984375	0		
0.05440658569335938	-0.010814602851867677	0		0.6097659912109376	-2.604791015625	0		-0.9667110595703124	0.0676628646850586	0		-0.5045709838867187	-2.87120068359375	0		2.70925048828125	-1.0223154907226562	0		4.15785888671875	-0.5719747314453125	0		5.52434619140625	-0.3766500244140625	0		6.032751953125	0.47220376586914065	0		-0.09272235107421875	5.95642724609375	0		
-0.02141269874572754	-0.006238107204437256	0		0.55800146484375	-2.59650634765625	0		-1.037640869140625	0.06317593383789062	0		-0.4993633422851563	-2.865615234375	0		2.721195556640625	-1.03780419921875	0		4.1799482421875	-0.5755821533203125	0		5.5244736328125	-0.37698495483398436	0		6.02487744140625	0.47196807861328127	0		-0.06035989761352539	5.97668359375	0		
0.0488868408203125	5.201640129089356E-4	0		0.5622671508789062	-2.592939697265625	0		-1.0346295166015624	0.04674991989135742	0		-0.5599208984375	-2.847260498046875	0		2.69353076171875	-1.0278392333984374	0		4.1903525390625	-0.5600758056640625	0		5.51876806640625	-0.3702774353027344	0		6.03408203125	0.47149493408203125	0		-0.059200428009033204	5.97428466796875	0		
-0.004846842765808106	-0.001239305019378662	0		0.5676513061523437	-2.58641748046875	0		-0.9683480224609375	0.0455208740234375	0		-0.48846725463867186	-2.835549072265625	0		2.719028076171875	-1.0115513916015626	0		4.165619140625	-0.5621693115234375	0		5.5172763671875	-0.352646728515625	0		6.0253671875	0.47121484375	0		-0.07505091857910157	5.9650615234375	0		
0.04953402709960938	-3.4545299410820005E-4	0		0.5639779052734375	-2.5908125	0		-0.9811209716796875	0.03422740936279297	0		-0.531904541015625	-2.8204638671875	0		2.713297119140625	-1.0199096069335938	0		4.157056640625	-0.5564838256835938	0		5.5086396484375	-0.3529531555175781	0		6.02162744140625	0.46285089111328126	0		-0.05677425765991211	5.96039453125	0		
-0.022939617156982423	0.008071839332580566	0		0.5644179077148438	-2.59128125	0		-0.9838438110351563	0.021786279678344726	0		-0.51220849609375	-2.800172607421875	0		2.71372705078125	-1.0203645629882812	0		4.17537255859375	-0.5661482543945312	0		5.5090654296875	-0.3533901672363281	0		6.0220478515625	0.46241720581054685	0		-0.09047186279296875	5.9533369140625	0		
0.003298649072647095	-0.011737459182739258	0		0.5379342041015625	-2.589442138671875	0		-0.9965053100585938	0.010444770812988282	0		-0.5765416870117187	-2.785879150390625	0		2.71134033203125	-1.0098035278320312	0		4.16102001953125	-0.5524309692382813	0		5.5077099609375	-0.3398218994140625	0		6.031515625	0.4618560791015625	0		-0.0587762451171875	5.974462890625	0		
-0.021963281631469725	0.0070657958984375	0		0.5694804077148438	-2.58832763671875	0		-0.984123291015625	-2.1998199820518494E-4	0		-0.504875244140625	-2.7752607421875	0		2.713901123046875	-1.0063197631835938	0		4.17758837890625	-0.54810693359375	0		5.51232666015625	-0.3313419189453125	0		6.0361142578125	0.46934005737304685	0		-0.05831628036499024	5.97395068359375	0		
0.0055586848258972164	0.006210453987121582	0		0.5471113891601562	-2.581570556640625	0		-0.987635498046875	-0.0037053630352020263	0		-0.5509368286132813	-2.7432216796875	0		2.7085185546875	-0.9997528686523437	0		4.1691904296875	-0.5424921264648438	0		5.50285400390625	-0.3317041625976562	0		6.0274404296875	0.45297091674804685	0		-0.0729713134765625	5.96260693359375	0		
-0.011017875671386719	-0.003120457887649536	0		0.5995740966796875	-2.589736572265625	0		-1.004284912109375	-0.01904353713989258	0		-0.5151919555664063	-2.728191162109375	0		2.691144287109375	-0.9930518798828125	0		4.1857861328125	-0.5381930541992187	0		5.49851025390625	-0.3221397399902344	0		6.0330654296875	0.4604179382324219	0		-0.07248590087890625	5.96206787109375	0		
0.0035709829330444337	0.0011612709760665894	0		0.5563931884765625	-2.56774658203125	0		-1.012840087890625	-0.026488838195800782	0		-0.5154114379882813	-2.70973193359375	0		2.70866748046875	-0.9947859497070313	0		4.15945458984375	-0.5273821411132813	0		5.49904150390625	-0.3226463317871094	0		6.024591796875	0.46002471923828125	0		-0.07298912811279297	5.96253173828125	0		
-0.029981782913208008	-0.004980186939239502	0		0.5668184814453125	-2.57741845703125	0		-1.008529052734375	-0.044098045349121096	0		-0.5865540161132813	-2.68341796875	0		2.692205322265625	-0.99411572265625	0		4.17384130859375	-0.5390774536132813	0		5.4977197265625	-0.31013983154296876	0		6.030203125	0.4674501953125	0		-0.07153712463378906	5.95996435546875	0		
-0.009471620559692383	-0.004782771110534668	0		0.553322509765625	-2.578804443359375	0		-1.0030903930664063	-0.04972405624389648	0		-0.5678088989257812	-2.665200927734375	0		2.6927109375	-0.9946588134765625	0		4.17963525390625	-0.5156740112304687	0		5.505390625	-0.29675189208984376	0		6.03869921875	0.4668302612304687	0		-0.0549537467956543	5.96920947265625	0		
0.012150328636169433	0.0064004468917846676	0		0.5680670166015624	-2.5585341796875	0		-1.0007095336914062	-0.05831375503540039	0		-0.5708927612304687	-2.63071875	0		2.696241943359375	-0.9912431640625	0		4.17115283203125	-0.5131052856445313	0		5.49689453125	-0.29517645263671877	0		6.03117529296875	0.4663963623046875	0		-0.07160142517089843	5.96085498046875	0		
0.00856879997253418	0.0028901870250701905	0		0.5385328979492188	-2.558727294921875	0		-0.9374049072265624	-0.07163971710205078	0		-0.5362615356445313	-2.617693359375	0		2.701687744140625	-0.9928532104492187	0		4.16570654296875	-0.5055773620605468	0		5.4924599609375	-0.28665606689453127	0		6.02243505859375	0.4499690246582031	0		-0.08631240081787109	5.948478515625	0		
0.008997713088989258	0.002336162090301514	0		0.5669400634765625	-2.561619873046875	0		-1.0250906982421875	-0.08112734222412109	0		-0.569510009765625	-2.591837890625	0		2.6851318359375	-0.9921962890625	0		4.1631123046875	-0.5080873718261719	0		5.48290234375	-0.2860789794921875	0		6.02286279296875	0.44942584228515625	0		-0.08688198852539063	5.9489365234375	0		
-0.017601173400878908	0.00211686897277832	0		0.5413893432617187	-2.5578515625	0		-1.016849853515625	-0.09477006530761718	0		-0.579782958984375	-2.565253173828125	0		2.702517333984375	-0.9939495239257813	0		4.1616328125	-0.4986111755371094	0		5.48737353515625	-0.28067544555664065	0		6.02735888671875	0.45682916259765627	0		-0.06936204528808594	5.9581826171875	0		
0.009761440277099609	0.0012514289617538451	0		0.54378466796875	-2.555415283203125	0		-1.0164854736328126	-0.09530581665039063	0		-0.636140625	-2.54210009765625	0		2.68589306640625	-0.993287109375	0		4.16203271484375	-0.4961582336425781	0		5.491822265625	-0.274274169921875	0		6.0328212890625	0.46421710205078126	0		-0.06898470306396484	5.95764501953125	0		
-0.012862446784973145	0.005002189159393311	0		0.539258056640625	-2.5428857421875	0		-0.9452137451171875	-0.1006909408569336	0		-0.558612548828125	-2.52556103515625	0		2.706249755859375	-0.9910692749023438	0		4.17435546875	-0.49684921264648435	0		5.49214697265625	-0.2748250732421875	0		6.02805224609375	0.45572518920898436	0		-0.06863400268554687	5.9571171875	0		
-0.016626625061035155	5.334519743919373E-4	0		0.5565858154296875	-2.538613525390625	0		-1.02305810546875	-0.11125489807128906	0		-0.6320473022460937	-2.5011787109375	0		2.69756494140625	-0.98849462890625	0		4.178697265625	-0.4924416809082031	0		5.49242919921875	-0.2753767395019531	0		6.0283388671875	0.4551701965332031	0		-0.06831306457519531	5.95660009765625	0		
-0.016385276794433593	2.608099952340126E-5	0		0.5568063354492188	-2.539125732421875	0		-0.9459327392578125	-0.12168890380859375	0		-0.5596859741210938	-2.490556640625	0		2.682932861328125	-0.9778427734375	0		4.1748740234375	-0.4979344482421875	0		5.49266845703125	-0.27592926025390624	0		6.033474609375	0.4455531921386719	0		-0.06802289581298829	5.95609326171875	0		
